# xmcd
#
# Track frame offsets:
#	150
#	13918
#	25680
#	42075
#	52046
#	61261
#	73546
#	89289
#	102293
#	115118
#	129764
#	142137
#	156610
#	166262
#	180812
#	190593
#	204596
#	217772
#	230145
#	238782
#
# Disc length: 3404 seconds
#
# Revision: 1
# Processed by: cddbd v1.5.2PL0 Copyright (c) Steve Scherf et al.
# Submitted via: audiograbber 1.83.01
#
DISCID=0f0d4a14
DTITLE=Various Artist - Hit Club The Hits 1951
DYEAR=1951
DGENRE=Swing
TTITLE0=Patti Page - Mockingbird Hill
TTITLE1=Frankie Laine - Rose, Rose I Love You
TTITLE2=Mario Lanza - Be My Love
TTITLE3=Les Paul And Mary Ford - The World Is Waiting For The Sunrise
TTITLE4=Rosemary Clooney - Come On-A My House
TTITLE5=Tony Bennett - Cold Cold Heart
TTITLE6=Bing Crosby And Jane Wyman - In The Cool Cool Coll Of The Evening
TTITLE7=Billy Eckstine - I Apologize
TTITLE8=Ley Baxter Orchestra - Because Of You
TTITLE9=Nat King Cole - Too Young
TTITLE10=The Weavers - On Top Of Old Smoky
TTITLE11=Perry Como - If
TTITLE12=Mario Lanza - La Donna E Mobile
TTITLE13=Frankie Laine - Jezebel
TTITLE14=Les Paul And Mary Ford - How High The Moon
TTITLE15=Johnny Ray And The Four Lads - Cry
TTITLE16=Guy Mitchell - My Truly Truly Fair
TTITLE17=Tony Martin - I Get Ideas
TTITLE18=Les Paul And Mary Ford - Meet Mister Callaghan
TTITLE19=Mario Lanza - The Loveliest Night Of The Year
EXTD=
EXTT0=
EXTT1=
EXTT2=
EXTT3=
EXTT4=
EXTT5=
EXTT6=
EXTT7=
EXTT8=
EXTT9=
EXTT10=
EXTT11=
EXTT12=
EXTT13=
EXTT14=
EXTT15=
EXTT16=
EXTT17=
EXTT18=
EXTT19=
PLAYORDER=
